<?xml version="1.0" encoding="utf-8" ?><svg xmlns="http://www.w3.org/2000/svg" xmlns:xlink="http://www.w3.org/1999/xlink" width="1024" height="1024" viewBox="0 0 1024 1024"><path fill="#FEFEFE" d="M117.588 561.287C125.586 560.083 135.425 560.302 143.643 560.384C213.492 561.081 283.812 582.071 348.927 605.022C445.282 638.983 536.43 684.642 627.12 730.91C655.62 745.722 684.338 760.112 713.263 774.077C743.218 788.409 769.252 802.646 802.472 807.316C816.684 809.314 829.018 810.735 843.424 809.942C883.066 807.761 918.76 785.743 943.195 755.27C948.405 748.772 951.663 741.215 956.217 734.546C955.183 741.464 953.188 746.912 950.877 753.441C943.634 773.9 932.647 794.838 914.878 808.013C885.998 829.426 841.246 831.979 806.713 826.621C727.375 814.313 653.019 774.95 581.973 739.127C564.834 730.486 547.156 721.874 530.201 713.115C503.893 699.242 477.39 685.739 450.702 672.611C427.238 661.15 403.562 650.125 379.688 639.541C313.382 609.616 244.762 581.747 172.595 569.733C162.23 568.007 151.203 566.222 140.747 565.488C135.23 564.324 120.894 563.708 115.07 563.389C115.714 562.31 115.637 563.63 117.588 561.287Z"/><path fill="#FEFEFE" d="M301.052 258.268C442.101 253.569 583.211 310.283 699.818 386.388C705.59 390.154 712.059 394.189 717.326 398.513C712.994 397.412 710.453 396.229 706.341 394.419C682.339 383.664 657.981 373.721 633.308 364.607C551.787 334.723 465.404 320.316 378.597 322.126C359.824 322.677 332.668 325.026 313.934 327.084C303.429 311.359 293.292 277.335 292.319 258.509L301.052 258.268Z"/><path fill="#CEA034" d="M282.727 556.754C288.929 556.327 305.185 559.255 312.786 559.867C335.634 561.657 358.381 564.558 380.947 568.559C402.19 572.401 425.737 578.418 446.639 583.748C510.926 600.401 574.219 620.678 636.215 644.481L662.751 654.71C668.33 656.872 676.464 659.765 681.407 662.771C681.877 668.267 681.535 675.209 681.84 681.048C682.354 690.876 684 698.452 685.966 707.858C687.869 716.961 692.287 724.624 694.331 732.671L694.504 733.372L689.502 731.044C680.177 725.501 669.173 720.181 659.401 715.276L616.863 693.946C545.989 658.389 467.222 621.854 393.02 594.767C366.987 585.132 340.671 576.281 314.107 568.226C306.182 565.863 297.979 563.772 289.994 561.598C286.275 560.586 279.711 560.052 276.566 558.336L276.664 557.636C278.79 556.509 280.298 556.753 282.727 556.754Z"/><path fill="#FEFEFE" d="M465.891 388.802C472.512 388.533 497.654 388.321 503.94 388.902C504.286 396.309 504.038 405.35 504.051 412.871L504.364 440.898C511.286 438.215 515.905 435.038 523.449 433.629C557.838 427.204 581.348 446.225 588.137 479.018C588.457 484.532 588.621 489.562 588.335 495.094C588.21 497.526 587.651 500.278 587.634 502.481C582.243 523.085 569.251 540.448 547.481 545.183C537.922 547.262 524.014 546.784 515.119 542.315C511.411 540.452 506.863 536.695 503.155 534.279C501.354 536.536 498.648 541.197 496.976 543.835C492.101 544.171 469.545 544.502 466.291 542.916C465.31 539.395 465.94 508.549 465.94 502.742L465.891 388.802ZM503.954 476.624C503.62 494.119 500.809 513.134 526.823 515.098C528.686 515.239 530.941 514.845 532.766 514.451C555.052 507.056 556.219 476.217 536.085 465.568C531.746 463.273 526.649 463.407 521.826 463.666C513.863 465.362 508.706 469.337 504.255 476.155L503.954 476.624Z"/><path fill="#CEA034" d="M258.059 236.417C259.602 236.332 259.725 236.38 261.266 236.645C264.966 239.162 263.856 247.421 264.286 251.76C266.203 271.076 270.828 290.202 277.291 308.479C278.418 311.664 278.953 314.192 275.644 315.827C265.26 321.954 255.056 328.503 245.143 335.365C217.874 354.486 192.371 376.01 168.94 399.679C163.673 405.003 153.883 414.442 150.502 420.808C131.884 405.979 113.365 396.586 90.3478 391.617C88.8477 391.293 86.7922 390.312 86.3695 388.722C84.3187 381.01 97.9864 382.429 102.493 381.765C111.871 380.649 121.291 380.343 130.596 378.84C132.434 378.543 133.534 377.759 134.413 376.213C134.377 375.082 134.13 373.834 133.361 372.976C127.453 366.385 121.541 359.775 115.85 352.993C111.998 348.662 100.214 336.016 102.569 330.646C104.89 328.473 106.948 328.949 109.936 329.231C117.33 329.93 156.038 349.438 159.042 348.948C163.084 343.507 135.472 288.035 140.543 278.062C141.064 277.037 142.137 276.114 143.266 275.83C149.049 274.379 196.399 301.905 205.813 305.846C207.061 306.369 207.679 306.405 208.926 305.95C209.427 305.16 209.817 304.141 209.563 303.186C205.311 287.171 201.338 270.956 198.47 254.629C198.13 252.692 198.611 250.657 199.922 249.16C201.214 247.713 203.056 246.878 204.995 246.859C212.521 246.806 215.434 253.786 219.335 258.283C226.732 266.808 232.877 279.018 240.962 286.528C243.457 281.766 243.637 278.634 245.196 274.254C248.314 265.5 253.827 243.496 258.059 236.417Z"/><path fill="#FEFEFE" d="M292.58 390.153C298.885 389.808 318.867 389.697 324.416 390.667C324.82 397.477 324.666 406.773 324.656 413.72L324.618 457.197C324.598 465.682 324.321 475.49 324.756 483.872C330.266 484.2 336.538 483.684 342.44 483.917C341.927 493.192 342.026 503.16 341.867 512.529C336.092 512.533 330.317 512.494 324.543 512.414C324.086 518.55 325.905 539.014 324.206 541.976C319.852 543.434 292.353 544.12 289.52 541.804C288.15 537.533 288.654 525.144 288.695 519.876C288.817 517.536 288.758 514.906 288.758 512.541C285.1 512.082 275.344 512.45 271.08 512.473L229.853 512.866C226.282 507.773 218.7 495.089 215.894 489.519C217.637 486.828 222.097 481.582 224.227 478.966L240.177 459.454C252.871 443.941 264.954 428.267 276.823 412.108C280.055 407.708 288.932 391.789 292.58 390.153ZM256.642 483.885C266.606 484.057 279.147 484.32 289.018 483.994C288.996 480.072 289.263 442.823 288.379 441.904C282.474 449.262 276.771 457.279 270.726 464.636C268.506 467.337 257.274 481.16 256.203 483.444L256.642 483.885Z"/><path fill="#FEFEFE" d="M593.143 478.843C597.389 462.024 603.985 448.954 619.082 439.989C644.84 424.695 682.079 430.798 697.108 458.131C702.977 468.805 704.8 477.918 704.579 490.109C704.544 493.322 704.954 497.062 703.732 500.084C701.048 500.959 691.475 500.373 687.963 500.463C678.151 500.715 668.055 500.272 658.295 500.218C651.083 500.177 639.079 499.679 632.222 500.426C640.166 522.361 662.903 517.21 678.662 507.84C683.57 515.205 688.558 522.517 693.625 529.773C687.867 534.543 681.861 539.362 674.934 541.978C650.284 551.283 622.812 547.814 605.623 526.506C597.956 517.002 597.721 511.613 593.615 501.164C592.084 492.674 592.397 487.211 593.143 478.843ZM632.305 477.895C638.854 478.081 645.406 478.144 651.957 478.085C655.118 478.088 665.432 478.967 667.17 477.319C667.456 473.824 666.385 472.279 664.735 469.379C661.187 463.14 655.906 461.208 648.997 461.669C638.238 463.304 635.667 467.982 632.305 477.895Z"/><defs><linearGradient id="gradient_0" gradientUnits="userSpaceOnUse" x1="812.01813" y1="754.75159" x2="917.03131" y2="611.27393"><stop offset="0" stop-color="#09323D" stop-opacity="0"/><stop offset="1" stop-color="#0C333E" stop-opacity="0.05882353"/></linearGradient></defs><path fill="url(#gradient_0)" d="M881.669 581.693C885.455 589.997 886 591.941 893.957 597.864C895.96 600.094 896.962 601.619 898.614 604.065C899.479 606.723 903.754 615.516 905.925 617.184C905.462 620.796 905.079 625.115 904.044 628.523L903.174 631.495C899.227 639.165 891.413 645.492 886.225 652.185C889.471 666.171 891.609 686.518 891.501 700.735C898.299 705.618 906.238 711.932 913.009 716.328C917.317 717.52 931.5 705.891 935.72 702.936C938.124 702.879 938.57 702.405 939.945 703.55C940.263 705.415 939.648 707.367 939.866 710.144C938.807 713.659 937.44 717.073 935.781 720.347C934.066 722.024 931.927 725.319 930.681 726.323C928.606 724.806 930.636 715.446 929.817 714.098C928.573 715.21 928.665 715.212 927.91 716.734C923.76 719.98 920.013 721.753 915.264 724.004C914.526 730.436 913.572 734.796 912.124 741.091L911.312 744.709C910.226 746.359 910.314 746.432 909.959 748.306C910.638 751.109 911.754 751.657 912.418 753.843C896.47 769.257 883.094 775.984 862.571 783.075C861.005 782.973 860.998 783.128 859.629 782.56C859.522 780.355 861.045 780.048 862.068 777.03L861.343 775.722C867.87 773.817 873.007 772.367 878.823 768.659C869.724 768.366 865.24 768.382 856.494 765.589C851.287 769.01 843.16 774.216 837.586 776.901C835.435 774.714 835.319 772.835 833.603 770.327C839.743 767.002 845.67 763.299 851.351 759.24C850.329 754.415 847.222 736.39 845.797 733.064C848.091 730.332 847.375 729.662 846.391 726.371C849.118 724.091 850.514 724.886 852.547 721.309C854.292 719.79 861.041 715.309 863.262 713.751C869.89 709.092 876.468 704.362 882.994 699.562C882.287 684.132 880.527 668.768 877.729 653.577C866.775 647.17 850.063 638.441 838.172 634.177L832.76 637.003C832.598 633.131 834.861 629.647 831.278 627.528C832.037 627.058 832.76 626.482 833.48 625.945C835 622.876 835.074 596.434 834.496 592.503C833.125 590.855 830.441 587.127 831.02 584.905C834.189 583.494 838.561 586.693 841.911 587.028C842.889 587.126 845.776 586.355 846.901 586.065C849.598 587.069 850.23 587.257 851.885 589.627C853.2 588.394 854.178 587.985 855.811 587.199C860.763 588.497 866.594 588.272 871.451 586.642L872.355 585.726C878.457 587.233 877.868 585.778 881.669 581.693Z"/><path fill="#FEFEFE" d="M340.94 433.985C345.473 433.598 378.229 433.943 381.825 434.61C388.409 443.197 394.291 454.004 401.555 463.126C408.099 454.367 414.222 443.109 421.612 434.252C427.07 433.911 455.652 433.597 459.936 434.841L460.353 435.644C459.291 439.554 428.141 479.393 423 487.68C425.418 492.1 430.468 498.785 433.568 503.13L451.499 528.094C454.297 531.936 457.317 536.039 460.096 539.925C460.982 541.163 460.504 542 460.208 543.542C446.98 543.913 433.745 544.042 420.512 543.93L420.248 543.639C416.909 540.027 403.142 516.584 401.147 516.162C396.469 519.456 385.029 537.53 379.821 543.453L379.336 543.999C374.128 543.996 342.597 544.57 340.398 543.233C340.119 540.146 347.404 532.01 349.694 529.005C355.386 521.537 360.999 514.01 366.532 506.424C369.718 502.144 374.636 495.913 377.309 491.503L377.623 490.973C366.614 473.093 353.552 455.301 342.196 437.551C341.451 436.387 341.199 435.304 340.94 433.985Z"/><path fill="#FEFEFE" d="M757.008 409.145C758.167 408.961 757.592 408.893 758.725 409.412C759.663 412.843 758.977 431.182 758.873 435.915C766.568 436.2 773.975 435.476 781.688 435.723C782.166 445.137 781.904 456.036 781.891 465.561C774.579 465.212 766.152 465.416 758.831 465.561C758.475 471.737 758.579 504.367 759.946 508.87C762.798 518.272 773.971 510.808 779.667 513.781C781.908 516.992 783.767 536.261 784.732 541.72C776.74 544.235 767.492 546.075 759.125 546.089C742.457 546.216 724.031 540.006 720.798 521.954C717.659 504.428 720.003 482.62 719.417 464.562C714.836 465.049 712.481 465.682 707.686 465.608C707.386 461.49 707.777 456.494 707.828 452.27C707.887 447.365 707.533 441.766 708.108 436.973C709.381 435.406 715.847 436.024 719.033 435.575L719.656 435.482C719.922 428.717 719.468 419.006 719.385 412.028C729.59 411.999 746.961 410.988 757.008 409.145Z"/><path fill="#FEFEFE" d="M838.172 634.177C850.063 638.441 866.775 647.17 877.729 653.577C880.527 668.768 882.287 684.132 882.994 699.562C876.468 704.362 869.89 709.092 863.262 713.751C861.041 715.309 854.292 719.79 852.547 721.309L847.22 724.74C844.373 723.514 841.507 722.332 838.623 721.195C832.838 718.036 824.89 714.396 818.833 711.368L813.639 708.599C809.134 705.778 805.326 705.925 803.984 700.443C804.216 688.562 800.706 671.632 802.218 658.928C804.571 657.551 808.555 654.226 810.639 652.449C817.894 647.132 825.27 641.982 832.76 637.003L838.172 634.177Z"/><path fill="#FEFEFE" d="M754.533 602.953C769.505 583.351 777.343 573.016 803.523 575.06C805.047 575.955 805.039 576.032 806.845 576.408C817.174 581.543 824.757 586.484 834.496 592.503C835.074 596.434 835 622.876 833.48 625.945C832.76 626.482 832.037 627.058 831.278 627.528C822.853 632.68 813.292 639.065 805.571 645.233C802.287 647.738 799.016 650.26 795.759 652.8C792.676 651.338 771.532 645.92 767.691 645.086C762.399 643.519 761.664 644.843 760.495 639.237C760.416 638.302 760.252 637.611 760.074 636.681C759.921 631.458 756.229 607.566 754.533 602.953Z"/><path fill="#FEFEFE" d="M797.819 710.144L801.476 711.931L805.943 714.277C816.642 720.273 827.652 725.696 838.927 730.523L839.248 730.577C841.18 731.509 843.698 732.846 845.797 733.064C847.222 736.39 850.329 754.415 851.351 759.24C845.67 763.299 839.743 767.002 833.603 770.327C829.032 772.801 820.012 778.192 815.269 778.975L808.644 777.6C799.24 774.769 792.872 772.617 783.795 768.819L783.451 768.729C781.901 767.661 777.279 765.413 776.34 764.299C767.278 753.543 765.411 736.427 765.344 723.558L765.803 723.118C778.195 718.895 785.95 715.619 797.819 710.144Z"/><path fill="#FEFEFE" d="M907.018 625.148C907.417 625.269 909.098 625.812 909.395 625.846C920.287 630.329 928.036 634.469 936.402 643.145C940.575 660.88 941.069 682.664 936.128 700.295C930.753 704.734 925.647 709.216 919.726 712.905C917.32 714.404 914.981 715.178 913.009 716.328C906.238 711.932 898.299 705.618 891.501 700.735C891.609 686.518 889.471 666.171 886.225 652.185C891.413 645.492 899.227 639.165 903.174 631.495C904.455 629.905 905.966 627.009 907.018 625.148Z"/><path fill="#FEFEFE" d="M811.872 789.294C799.709 787.472 787.96 783.525 777.163 777.633C716.448 744.203 694.871 670.443 728.659 610.101C744.472 582.25 770.822 561.928 801.778 553.71C831.446 545.706 863.076 549.766 889.761 565.004C918.39 581.211 939.204 608.357 947.426 640.212C962.837 697.836 932.594 760.69 876.873 782.732C872.203 784.58 867.468 786.016 862.625 787.324C861.045 787.029 861.053 787.15 859.872 786.109C859.739 784.381 859.609 785.235 860.58 783.532L862.571 783.075C883.094 775.984 896.47 769.257 912.418 753.843C915.55 750.756 917.556 748.458 920.39 745.069C922.707 742.125 924.239 740.145 926.215 736.98C929.663 732.074 933.42 725.788 935.781 720.347C937.44 717.073 938.807 713.659 939.866 710.144C941.404 706.086 942 703.783 942.889 699.572C950.237 677.289 946.055 642.386 935.6 621.417C920.856 591.846 900.416 571.976 869.448 560.773L866.476 560.945C864.07 560.941 863.32 560.732 860.918 560.234C853.866 555.747 846.358 557.095 837.903 556.859C832.923 556.705 825.927 556.856 820.954 557.476L814.695 557.554C804.935 556.893 809.055 560.438 800.516 561.268L799.101 561.738L795.799 560.623C771.106 566.975 746.227 588.964 733.372 610.726C717.721 637.311 713.225 669.008 720.867 698.896C721.647 701.894 722.878 706.375 724.16 709.191C724.865 712.242 726.543 716.371 727.979 719.183C730.928 725.142 733.628 730.304 737.4 735.861C739.267 738.403 742.025 742.389 744.029 744.641C757.018 762.998 780.48 776.188 801.74 782.537C805.255 783.417 812.516 785.375 815.849 785.525L816.051 785.974C816.154 787.78 816.322 786.933 815.439 788.589C813.85 789.243 813.561 789.166 811.872 789.294Z"/><path fill="#09303C" d="M795.799 560.623C818.921 551.73 846.158 553.159 869.448 560.773L866.476 560.945C864.07 560.941 863.32 560.732 860.918 560.234C853.866 555.747 846.358 557.095 837.903 556.859C832.923 556.705 825.927 556.856 820.954 557.476L814.695 557.554C804.935 556.893 809.055 560.438 800.516 561.268L799.101 561.738L795.799 560.623Z"/><path fill="#CEA034" d="M283.208 325.881C285.49 327.038 291.703 340.937 293.317 344.208C289.905 347.087 284.413 350.036 280.557 352.548C240.698 378.52 205.249 407.938 174.494 444.417C172.907 444.651 173.727 444.677 171.917 443.497C169.176 440.401 162.057 432.917 160.394 429.93C160.888 426.864 168.694 419.164 171.289 416.378C193.446 392.835 217.825 371.486 244.086 352.629C256.87 343.447 270.936 334.813 283.208 325.881Z"/><path fill="#CEA034" d="M102.66 444.781C105.855 447.248 112.478 471.725 114.977 477.932C125.788 478.263 139.725 477.214 149.922 478.19C145.99 482.792 128.191 495.087 122.191 499.56C123.645 504.099 133.041 531.4 131.66 533.596C129.688 533.014 108.118 516.424 103.981 513.945L103.432 513.622C100.127 514.741 79.2772 531.051 73.7551 534.609C75.9111 524.4 82.6383 509.149 84.3131 499.907C78.0707 494.342 64.3918 485.315 57.4128 479.724C57.3274 479.397 57.2421 479.07 57.1568 478.743C59.0935 477.334 87.7495 477.965 92.2702 477.956C93.3229 475.318 94.4362 470.64 95.4059 467.631C97.8502 460.044 100.394 452.414 102.66 444.781Z"/><path fill="#CEA034" d="M870.827 443.081C873.862 444.985 881.056 469.171 883.88 475.382C891.659 476.193 907.506 475.473 915.597 475.184C910.625 481.524 897.592 491.101 890.909 497.825C893.384 509.694 897.119 520.768 899.67 532.6C891.545 527.15 881.269 517.477 872.471 512.453C871.37 511.824 870.566 512.458 869.65 512.954C862.631 518.208 854.958 523.168 847.963 528.589C846.595 529.65 845.626 530.147 844.044 529.873C843.969 529.724 843.872 529.584 843.82 529.426C842.922 526.696 852.116 501.984 853.552 497.703C849.696 494.354 828.22 478.714 827.648 476.727C829.887 475.146 854.448 475.986 859.371 475.856C861.753 471.093 869.559 448.391 870.827 443.081Z"/><path fill="#FEFEFE" d="M748.243 612.245C748.373 613.263 748.408 614.534 748.85 615.37C749.297 621.089 753.819 645.341 753.192 647.511C749.545 651.669 742.187 665.652 740.24 671.453C739.553 676.114 737.684 679.235 736.689 683.203C734.316 686.795 732.379 685.197 728.417 684.91C726.838 684.88 726.052 685.024 724.707 684.202C723.436 681.857 723.922 680.597 724.142 677.653C723.355 658.611 724.691 646.216 731.768 628.167C736.252 616.731 737.433 617.056 748.243 612.245Z"/><path fill="#042B37" d="M740.24 671.453C739.553 676.114 737.684 679.235 736.689 683.203C734.316 686.795 732.379 685.197 728.417 684.91C726.838 684.88 726.052 685.024 724.707 684.202C723.436 681.857 723.922 680.597 724.142 677.653C724.5 679.051 724.612 680.111 724.793 681.527C728.526 681.766 732.396 681.878 736.144 682.035C737.252 678.414 738.621 674.877 740.24 671.453Z"/><path fill="#FEFEFE" d="M804.822 566.299C820.351 559.783 840.179 560.445 856.44 563.462C861.113 564.33 866.073 566.949 870.679 567.599C873.885 571.315 875.218 579.123 876.134 583.943C869.877 583.392 858.62 583.115 852.391 584.466C852.078 584.519 850.358 584.789 850.18 584.862C847.029 585.027 844.207 585.715 841.118 586.345C838.435 584.507 835.309 582.23 832.472 580.768C824.806 574.757 813.647 570.593 804.822 566.299Z"/><path fill="#062F39" fill-opacity="0.80000001" d="M866.476 560.945L869.448 560.773C900.416 571.976 920.856 591.846 935.6 621.417C946.055 642.386 950.237 677.289 942.889 699.572C943.127 695.967 944.334 691.294 942.424 688.594L941.525 688.65C938.289 692.399 938.662 698.266 935.72 702.936C931.5 705.891 917.317 717.52 913.009 716.328C914.981 715.178 917.32 714.404 919.726 712.905C925.647 709.216 930.753 704.734 936.128 700.295C941.069 682.664 940.575 660.88 936.402 643.145C928.036 634.469 920.287 630.329 909.395 625.846C914.734 625.391 918.389 629.577 923.237 628.507L923.419 627.738C921.479 624.956 916.729 623.016 913.98 620.692C913.487 620.276 910.631 620.071 909.828 620.007C909.067 619.657 906.733 617.798 905.925 617.184C903.754 615.516 899.479 606.723 898.614 604.065C901.41 607.601 904.036 612.21 906.411 616.112C909.693 617.598 913.016 618.994 916.375 620.296C917.284 622.126 917.238 622.089 918.989 623.032C923.159 625.276 925.008 629.201 929.872 628.672C930.43 627.142 930.439 627.893 929.771 626.347C927.1 620.011 922.549 613.075 918.873 607.162L919.822 607.317C920.984 608.574 922.121 609.711 923.09 611.123C924.658 613.682 927.34 617.407 927.958 620.029L929.72 622.804C934.594 630.442 924.032 629.734 935.379 639.924C936.318 641.543 937.026 643.228 938.562 644.182L939.203 643.984C939.902 642.316 939.884 642.425 939.949 640.62C939.593 635.412 934.624 623.141 932.209 618.187C931.144 616.013 929.386 613.047 928.171 610.857L927.793 609.866C927.266 608.51 926.631 607.711 925.818 606.523C924.47 604.682 923.945 603.687 922.885 601.652C920.839 599.231 908.925 586.363 907.086 585.256C903.685 581.962 900.448 578.283 896.069 576.188C894.618 574.582 894.476 574.235 892.537 573.477L891.572 573.852C891.855 576.684 894.058 578.185 896.234 579.862C898.702 582.632 899.009 582.84 899.985 586.36C893.856 581.542 889.615 578.032 882.699 574.346C883.812 579.559 884.991 584.758 886.235 589.94C888.69 592.114 892.309 595.09 893.957 597.864C886 591.941 885.455 589.997 881.669 581.693C877.868 585.778 878.457 587.233 872.355 585.726C867.725 584.179 857.698 584.579 852.391 584.466C858.62 583.115 869.877 583.392 876.134 583.943C875.218 579.123 873.885 571.315 870.679 567.599C865.912 563.25 864.192 565.284 860.527 563.463C864.369 563.27 868.682 565.576 871.532 563.931L871.241 562.9C869.968 561.374 868.499 561.369 866.476 560.945Z"/><path fill="#FEFEFE" d="M725.638 690.302C728.973 690.513 733.399 691.23 736.799 691.687C737.951 693.52 739.109 695.21 740.337 696.988C743.52 703.704 748.022 709.595 752.537 715.437C754.308 717.728 756.166 719.661 757.042 722.458C757.083 724.86 757.556 736.087 758.357 737.815C758.775 743.118 760.381 748.896 761.777 754.038C759.217 751.549 755.678 747.882 753.059 745.635C749.937 741.95 746.871 738.218 743.862 734.44C741.906 730.728 738.839 726.448 736.703 722.359C731.661 712.709 727.512 701.01 725.638 690.302Z"/><path fill="#09303C" fill-opacity="0.80000001" d="M785.908 573.418C792.267 572.917 797.988 571.473 803.523 575.06C777.343 573.016 769.505 583.351 754.533 602.953C754.637 601.846 754.831 602.227 754.395 601.679L754.467 600.426L754.11 600.548C753.821 602.364 754.143 602.536 753.073 603.379C752.869 601.284 752.731 599.352 752.304 597.286C750.816 601.947 751.053 602.197 748.277 605.502C747.482 606.449 749.993 612.074 748.85 615.37C748.408 614.534 748.373 613.263 748.243 612.245L747.007 610.941C744.428 610.356 740.597 612.876 737.167 614.122C733.935 618.744 728.021 632.375 726.279 637.909C722.406 650.663 722.588 662.577 723.358 675.644C723.734 682.022 721.371 679.95 724.943 687.07C723.748 687.296 724.323 687.232 722.978 686.781C713.033 674.272 722.299 639.755 727.762 626.179C734.119 610.382 744.951 595.307 757.763 584.129C760.735 581.537 763.671 577.738 767.344 576.283C769.055 575.634 769.298 575.544 770.607 574.354C770.685 575.628 770.697 575.566 771.197 576.75C776.479 579.552 777.658 573.19 785.908 573.418Z"/><path fill="#FEFEFE" d="M882.699 574.346C889.615 578.032 893.856 581.542 899.985 586.36C908.107 593.556 912.487 598.034 918.873 607.162C922.549 613.075 927.1 620.011 929.771 626.347C930.439 627.893 930.43 627.142 929.872 628.672C925.008 629.201 923.159 625.276 918.989 623.032C917.238 622.089 917.284 622.126 916.375 620.296C913.016 618.994 909.693 617.598 906.411 616.112C904.036 612.21 901.41 607.601 898.614 604.065C896.962 601.619 895.96 600.094 893.957 597.864C892.309 595.09 888.69 592.114 886.235 589.94C884.991 584.758 883.812 579.559 882.699 574.346Z"/><path fill="#062F39" d="M916.375 620.296C920.01 621.576 928.394 626.801 929.771 626.347C930.439 627.893 930.43 627.142 929.872 628.672C925.008 629.201 923.159 625.276 918.989 623.032C917.238 622.089 917.284 622.126 916.375 620.296Z"/><path fill="#CEA034" d="M125.356 242.862C131.359 242.169 137.188 245.159 140.126 250.439C143.065 255.718 142.535 262.248 138.783 266.984C137.509 268.593 135.917 269.921 134.108 270.887C132.457 271.769 130.656 272.332 128.797 272.548C120.598 273.503 113.177 267.627 112.227 259.426C111.276 251.226 117.155 243.809 125.356 242.862Z"/><path fill="#042B37" fill-opacity="0.96078432" d="M724.16 709.191C722.878 706.375 721.647 701.894 720.867 698.896C713.225 669.008 717.721 637.311 733.372 610.726C746.227 588.964 771.106 566.975 795.799 560.623L799.101 561.738L798.117 562.085C794.841 562.709 794.727 564.184 792.141 565.141C789.525 565.283 789.362 565.432 786.91 566.531C785.523 567.4 784.562 568.161 782.965 568.504L779.335 570.033C777.136 571.032 772.365 573.038 770.607 574.354C769.298 575.544 769.055 575.634 767.344 576.283C763.671 577.738 760.735 581.537 757.763 584.129C744.951 595.307 734.119 610.382 727.762 626.179C722.299 639.755 713.033 674.272 722.978 686.781C724.323 687.232 723.748 687.296 724.943 687.07C721.371 679.95 723.734 682.022 723.358 675.644C722.588 662.577 722.406 650.663 726.279 637.909C728.021 632.375 733.935 618.744 737.167 614.122C740.597 612.876 744.428 610.356 747.007 610.941L748.243 612.245C737.433 617.056 736.252 616.731 731.768 628.167C724.691 646.216 723.355 658.611 724.142 677.653C723.922 680.597 723.436 681.857 724.707 684.202C726.052 685.024 726.838 684.88 728.417 684.91L728.246 685.911C728.45 686.161 735.195 690.159 735.604 690.332C738.702 692.366 739.374 693.432 740.337 696.988C739.109 695.21 737.951 693.52 736.799 691.687C733.399 691.23 728.973 690.513 725.638 690.302C727.512 701.01 731.661 712.709 736.703 722.359C738.839 726.448 741.906 730.728 743.862 734.44C741.478 732.437 740.957 731.484 739.344 728.953C739.133 728.317 739.268 728.571 738.883 728.02C735.798 723.56 733.163 718.807 731.014 713.828C731.085 712.086 726.835 702.197 725.385 700.703L724.556 700.74C723.135 703.205 723.804 706.44 724.16 709.191Z"/><path fill="#042B37" fill-opacity="0.40392157" d="M758.357 737.815C760.164 741.518 762.99 751.65 766.294 753.038C769.323 751.233 764.905 742.254 764.653 738.929C764.371 735.22 763.927 726.809 765.344 723.558C765.411 736.427 767.278 753.543 776.34 764.299C777.279 765.413 781.901 767.661 783.451 768.729C781.804 768.631 780.155 768.56 778.506 768.517L777.807 769.49C778.382 772.296 783.226 773.395 785.273 772.215L785.467 771.564C784.558 770.371 784.239 770.208 783.795 768.819C792.872 772.617 799.24 774.769 808.644 777.6C806.018 777.597 804.992 777.386 802.61 778.552C801.414 779.903 801.533 779.945 801.36 781.685L801.74 782.537C780.48 776.188 757.018 762.998 744.029 744.641C747.685 746.157 750.273 751.582 753.922 751.454C754.838 749.399 753.91 748.116 753.059 745.635C755.678 747.882 759.217 751.549 761.777 754.038C760.381 748.896 758.775 743.118 758.357 737.815Z"/><path fill="#CEA034" d="M187.876 212.565C193.39 212.118 194.906 212.138 199.417 215.279C199.796 215.997 200.157 216.726 200.498 217.463C203.197 223.414 201.397 229.112 195.186 231.533C181.873 233.45 176.091 218.329 187.876 212.565Z"/><path fill="#CEA034" d="M75.8517 305.18C81.2006 303.776 86.6696 306.998 88.0336 312.357C89.3976 317.717 86.1343 323.161 80.7648 324.484C75.4523 325.794 70.0783 322.573 68.7288 317.27C67.3793 311.968 70.5597 306.57 75.8517 305.18Z"/><path fill="#CEA034" d="M57.9203 370.603C67.6935 371.65 68.5758 377.427 67.6437 385.785C64.5653 389.078 63.4433 389.912 59.0597 390.178C54.3191 390.04 50.254 388.616 48.7873 383.563C48.0588 380.989 48.4355 378.227 49.8271 375.941C51.7734 372.674 54.4099 371.489 57.9203 370.603Z"/><path fill="#CEA034" d="M258.361 198.702C263.461 197.335 268.7 200.376 270.043 205.483C271.386 210.589 268.322 215.814 263.209 217.133C260.275 217.891 257.156 217.208 254.807 215.293C252.611 213.504 251.325 210.83 251.298 207.997C251.257 203.651 254.162 199.827 258.361 198.702Z"/><defs><linearGradient id="gradient_1" gradientUnits="userSpaceOnUse" x1="846.58081" y1="768.02777" x2="869.453" y2="778.98846"><stop offset="0" stop-color="white" stop-opacity="0.80392158"/><stop offset="1" stop-color="white"/></linearGradient></defs><path fill="url(#gradient_1)" d="M856.494 765.589C865.24 768.382 869.724 768.366 878.823 768.659C873.007 772.367 867.87 773.817 861.343 775.722L860.806 775.979C859.962 776.169 858.886 776.369 858.09 776.642C850.902 778.266 843.117 779.697 835.717 779.472C836.185 777.985 836.438 777.942 837.586 776.901C843.16 774.216 851.287 769.01 856.494 765.589Z"/><path fill="#09303C" fill-opacity="0.88627452" d="M820.954 557.476C825.927 556.856 832.923 556.705 837.903 556.859C836.196 557.275 835.962 556.998 835.143 558.083C836.72 560.395 843.004 560.679 845.618 560.13L850.084 559.974C856.748 560.252 855.708 563.23 859.982 563.42L860.527 563.463C864.192 565.284 865.912 563.25 870.679 567.599C866.073 566.949 861.113 564.33 856.44 563.462C840.179 560.445 820.351 559.783 804.822 566.299C813.647 570.593 824.806 574.757 832.472 580.768C828 580.502 816.269 573.921 811.23 571.739C810.209 571.487 806.604 570.66 805.898 570.164C796.631 563.643 811.237 561.362 814.658 560.554L815.896 560.092C817.829 559.855 821.537 559.64 823.025 558.704L822.832 558.155L820.954 557.476Z"/><path fill="#062F39" fill-opacity="0.25490198" d="M818.833 711.368C824.89 714.396 832.838 718.036 838.623 721.195C836.461 721.133 834.666 720.84 832.752 721.72L832.315 722.474C835.257 726.781 837.791 724.745 838.927 730.523C827.652 725.696 816.642 720.273 805.943 714.277C811.323 714.366 812.786 713.382 817.907 716.074C818.899 716.596 819.192 716.326 820.022 715.84C820.481 713.624 820.048 713.849 818.833 711.368ZM827.668 720.59C828.025 718.582 828.293 718.923 827.577 717.428C826.149 716.986 825.916 716.999 824.406 716.864C824.022 718.853 823.788 718.049 824.73 719.452C825.9 719.96 826.427 720.209 827.668 720.59Z"/><path fill="#062F39" fill-opacity="0.19215687" d="M824.406 716.864C825.916 716.999 826.149 716.986 827.577 717.428C828.293 718.923 828.025 718.582 827.668 720.59C826.427 720.209 825.9 719.96 824.73 719.452C823.788 718.049 824.022 718.853 824.406 716.864Z"/><path fill="#09303C" fill-opacity="0.78823531" d="M811.23 571.739C816.269 573.921 828 580.502 832.472 580.768C835.309 582.23 838.435 584.507 841.118 586.345C844.207 585.715 847.029 585.027 850.18 584.862L846.901 586.065C845.776 586.355 842.889 587.126 841.911 587.028C838.561 586.693 834.189 583.494 831.02 584.905C830.441 587.127 833.125 590.855 834.496 592.503C824.757 586.484 817.174 581.543 806.845 576.408L810.425 576.195C812.182 576.803 812.445 576.76 813.933 575.956L814.088 574.816C812.984 572.897 813.371 573.508 811.096 572.328L811.23 571.739Z"/><path fill="#062F39" fill-opacity="0.22352941" d="M757.042 722.458C761.28 719.434 761.89 721.916 765.803 723.118L765.344 723.558C763.927 726.809 764.371 735.22 764.653 738.929C764.905 742.254 769.323 751.233 766.294 753.038C762.99 751.65 760.164 741.518 758.357 737.815C757.556 736.087 757.083 724.86 757.042 722.458Z"/><path fill="#062F39" fill-opacity="0.70980394" d="M748.85 615.37C749.993 612.074 747.482 606.449 748.277 605.502C751.053 602.197 750.816 601.947 752.304 597.286C752.731 599.352 752.869 601.284 753.073 603.379C754.143 602.536 753.821 602.364 754.11 600.548L754.467 600.426L754.395 601.679C754.831 602.227 754.637 601.846 754.533 602.953C756.229 607.566 759.921 631.458 760.074 636.681C758.121 630.371 755.632 622.434 755.656 615.795L754.985 615.21C754.075 615.992 753.254 616.725 752.273 617.423C750.99 621.234 752.918 638.166 753.939 642.479L754.453 646.008L753.192 647.511C753.819 645.341 749.297 621.089 748.85 615.37Z"/><path fill="#062F39" fill-opacity="0.019607844" d="M753.939 642.479C752.918 638.166 750.99 621.234 752.273 617.423C753.254 616.725 754.075 615.992 754.985 615.21L755.656 615.795C755.632 622.434 758.121 630.371 760.074 636.681C760.252 637.611 760.416 638.302 760.495 639.237C760.445 641.021 760.653 642.224 759.579 643.583C757.298 644.505 755.969 643.646 753.939 642.479Z"/><path fill="#FEFEFE" d="M927.91 716.734L928.89 717.356C928.787 718.722 928.396 719.239 927.789 720.48C925.269 724.885 916.617 740.259 912.746 742.215C912.105 741.484 912.271 741.878 912.124 741.091C913.572 734.796 914.526 730.436 915.264 724.004C920.013 721.753 923.76 719.98 927.91 716.734Z"/><path fill="#09303C" fill-opacity="0.76078433" d="M800.516 561.268C809.055 560.438 804.935 556.893 814.695 557.554L814.569 557.949C812.617 557.932 811.516 557.677 809.988 558.832L809.979 559.652C811.503 560.861 812.668 560.583 814.658 560.554C811.237 561.362 796.631 563.643 805.898 570.164C806.604 570.66 810.209 571.487 811.23 571.739L811.096 572.328C809.252 572.079 808.059 571.681 806.431 572.494C806.065 574.7 808.693 575.405 810.425 576.195L806.845 576.408C805.039 576.032 805.047 575.955 803.523 575.06C797.988 571.473 792.267 572.917 785.908 573.418C790.329 570.979 794.821 571.78 796.685 569.295L796.502 568.315L795.072 567.692C793.287 566.751 793.386 566.771 792.141 565.141C794.727 564.184 794.841 562.709 798.117 562.085C797.528 562.565 797.838 562.236 797.336 563.195C799.477 564.915 802.678 564.512 803.858 561.952C802.844 561.129 802.127 561.384 800.516 561.268Z"/><path fill="#09303C" fill-opacity="0.56470591" d="M896.234 579.862C902.409 582.075 899.194 587.089 907.086 585.256C908.925 586.363 920.839 599.231 922.885 601.652C920.858 601.436 921.694 601.158 920.229 602.298C919.455 604.323 919.671 605.107 919.822 607.317L918.873 607.162C912.487 598.034 908.107 593.556 899.985 586.36C899.009 582.84 898.702 582.632 896.234 579.862Z"/><path fill="#09303C" fill-opacity="0.1882353" d="M833.603 770.327C835.319 772.835 835.435 774.714 837.586 776.901C836.438 777.942 836.185 777.985 835.717 779.472C833.865 778.85 833.7 778.815 832.516 777.27L831.836 777.188C829.789 779.161 829.184 780.363 827.583 782.58C827.015 783.366 825.241 783.655 823.846 784.713C826.367 785.416 828.06 786.279 830.294 786.999C825.263 787.11 821.022 786.534 816.051 785.974L815.849 785.525C817.551 785.255 818.542 785.941 819.997 785.336C820.586 783.327 821.845 781.155 820.064 779.838C818.349 779.764 816.719 779.942 815.269 778.975C820.012 778.192 829.032 772.801 833.603 770.327Z"/><path fill="#062F39" fill-opacity="0.59215689" d="M927.789 720.48C927.632 722.913 926.885 727.816 926.654 730.457C926.621 730.833 924.341 732.895 923.825 733.368C923.24 735.509 924.246 736.07 926.215 736.98C924.239 740.145 922.707 742.125 920.39 745.069C919.637 743.866 919.745 743.846 918.462 743.302C915.389 743.441 914.992 746.414 911.856 745.766L911.312 744.709L912.124 741.091C912.271 741.878 912.105 741.484 912.746 742.215C916.617 740.259 925.269 724.885 927.789 720.48Z"/><path fill="#042B37" fill-opacity="0.0078431377" d="M808.644 777.6L815.269 778.975C816.719 779.942 818.349 779.764 820.064 779.838C821.845 781.155 820.586 783.327 819.997 785.336C818.542 785.941 817.551 785.255 815.849 785.525C812.516 785.375 805.255 783.417 801.74 782.537L801.36 781.685C801.533 779.945 801.414 779.903 802.61 778.552C804.992 777.386 806.018 777.597 808.644 777.6Z"/><path fill="#062F39" fill-opacity="0.75294119" d="M932.209 618.187C934.624 623.141 939.593 635.412 939.949 640.62C939.501 637.926 937.834 633.106 934.438 635.926C934.099 638.153 934.234 637.498 935.379 639.924C924.032 629.734 934.594 630.442 929.72 622.804L927.958 620.029C928.798 620.194 929.283 620.166 930.141 620.197C931.869 619.223 931.212 619.876 932.209 618.187Z"/><path fill="#062F39" fill-opacity="0.10588235" d="M727.979 719.183C728.006 715.413 728.052 715.768 731.014 713.828C733.163 718.807 735.798 723.56 738.883 728.02C739.268 728.571 739.133 728.317 739.344 728.953C737.993 730.329 737.68 733.801 737.4 735.861C733.628 730.304 730.928 725.142 727.979 719.183Z"/><path fill="#09303C" fill-opacity="0.63137257" d="M782.965 568.504C784.562 568.161 785.523 567.4 786.91 566.531C789.088 570.153 791.702 570.663 795.072 567.692L796.502 568.315L796.685 569.295C794.821 571.78 790.329 570.979 785.908 573.418C777.658 573.19 776.479 579.552 771.197 576.75C770.697 575.566 770.685 575.628 770.607 574.354C772.365 573.038 777.136 571.032 779.335 570.033L780.561 571.377C782.649 571.967 782.261 572.188 784.071 571.717L784.52 570.625C783.836 569.447 783.862 569.551 782.965 568.504Z"/><path fill="#042B37" fill-opacity="0.30980393" d="M835.717 779.472C843.117 779.697 850.902 778.266 858.09 776.642C853.036 783.107 848.472 777.926 842.286 780.776C841.6 782.004 841.851 783.005 841.949 784.442C841.197 785.342 841.118 785.415 840.194 786.14C838.739 786.214 839.172 786.218 837.724 785.907C838.06 784.978 837.988 785.119 838.11 784.124C835.123 780.596 828.585 784.396 823.846 784.713C825.241 783.655 827.015 783.366 827.583 782.58C829.184 780.363 829.789 779.161 831.836 777.188L832.516 777.27C833.7 778.815 833.865 778.85 835.717 779.472Z"/><path fill="#09303C" fill-opacity="0.17647059" d="M805.571 645.233C809.149 648.936 805.5 649.575 810.639 652.449C808.555 654.226 804.571 657.551 802.218 658.928C799.433 654.584 801.566 654.867 795.759 652.8C799.016 650.26 802.287 647.738 805.571 645.233Z"/><path fill="#062F39" fill-opacity="0.054901961" d="M803.984 700.443C805.326 705.925 809.134 705.778 813.639 708.599C812.51 714.805 806.514 711.235 801.476 711.931L797.819 710.144C801.994 709.175 803.971 704.484 803.984 700.443Z"/><path fill="#042B37" fill-opacity="0.97254902" d="M94.4635 563.645C98.4488 562.923 113.604 561.523 117.588 561.287C115.637 563.63 115.714 562.31 115.07 563.389C120.894 563.708 135.23 564.324 140.747 565.488C136.074 565.753 131.166 565.229 126.513 565.317C115.438 565.524 105.443 565.759 94.4635 563.645Z"/><path fill="#042B37" fill-opacity="0.16862746" d="M858.09 776.642C858.886 776.369 859.962 776.169 860.806 775.979C860.007 777.226 859.91 777.616 859.57 779.065C855.6 782.476 853.564 777.389 850.985 784.366C852.406 784.454 853.829 784.512 855.252 784.541L852.487 785.184C851.138 785.451 849.865 785.565 848.73 786.298C845.282 786.03 843.636 785.929 840.194 786.14C841.118 785.415 841.197 785.342 841.949 784.442C841.851 783.005 841.6 782.004 842.286 780.776C848.472 777.926 853.036 783.107 858.09 776.642Z"/><path fill="#062F39" fill-opacity="0.43921569" d="M927.91 716.734C928.665 715.212 928.573 715.21 929.817 714.098C930.636 715.446 928.606 724.806 930.681 726.323C931.927 725.319 934.066 722.024 935.781 720.347C933.42 725.788 929.663 732.074 926.215 736.98C924.246 736.07 923.24 735.509 923.825 733.368C924.341 732.895 926.621 730.833 926.654 730.457C926.885 727.816 927.632 722.913 927.789 720.48C928.396 719.239 928.787 718.722 928.89 717.356L927.91 716.734Z"/><path fill="#062F39" fill-opacity="0.12156863" d="M935.72 702.936C938.662 698.266 938.289 692.399 941.525 688.65L942.424 688.594C944.334 691.294 943.127 695.967 942.889 699.572C942 703.783 941.404 706.086 939.866 710.144C939.648 707.367 940.263 705.415 939.945 703.55C938.57 702.405 938.124 702.879 935.72 702.936Z"/><path fill="#09303C" fill-opacity="0.20392157" d="M850.18 584.862C850.358 584.789 852.078 584.519 852.391 584.466C857.698 584.579 867.725 584.179 872.355 585.726L871.451 586.642C866.594 588.272 860.763 588.497 855.811 587.199C854.178 587.985 853.2 588.394 851.885 589.627C850.23 587.257 849.598 587.069 846.901 586.065L850.18 584.862Z"/><path fill="#062F39" fill-opacity="0.70980394" d="M724.16 709.191C723.804 706.44 723.135 703.205 724.556 700.74L725.385 700.703C726.835 702.197 731.085 712.086 731.014 713.828C728.052 715.768 728.006 715.413 727.979 719.183C726.543 716.371 724.865 712.242 724.16 709.191Z"/><path fill="#FEFEFE" fill-opacity="0.91764706" d="M816.051 785.974C821.022 786.534 825.263 787.11 830.294 786.999L833.481 787.019C836.043 787.178 838.608 787.296 841.174 787.372C837.05 787.506 832.925 787.557 828.799 787.526L828.643 787.983C830.043 788.804 829.998 788.6 831.719 788.699C831.609 789.497 831.777 789.095 830.994 789.786L831.386 790.259C830.041 790.591 828.668 790.961 827.311 791.221C822.113 791.107 816.94 790.462 811.872 789.294C813.561 789.166 813.85 789.243 815.439 788.589C816.322 786.933 816.154 787.78 816.051 785.974Z"/><path fill="#042B37" fill-opacity="0.63137257" d="M588.137 479.018C589.079 481.116 588.571 481.596 590.291 483.245C592.044 482.744 592.561 480.498 593.143 478.843C592.397 487.211 592.084 492.674 593.615 501.164C592.719 498.909 592.47 497.456 590.771 495.858C588.755 496.608 588.814 500.747 587.634 502.481C587.651 500.278 588.21 497.526 588.335 495.094C588.621 489.562 588.457 484.532 588.137 479.018Z"/><path fill="#062F39" fill-opacity="0.74117649" d="M837.903 556.859C846.358 557.095 853.866 555.747 860.918 560.234C859.957 561.412 860.104 561.571 859.88 563.131L859.982 563.42C855.708 563.23 856.748 560.252 850.084 559.974L850.2 558.614C847.921 556.676 843.619 557.479 840.394 557.64C842.454 558.867 843.374 559.25 845.618 560.13C843.004 560.679 836.72 560.395 835.143 558.083C835.962 556.998 836.196 557.275 837.903 556.859Z"/><path fill="#062F39" fill-opacity="0.16078432" d="M838.623 721.195C841.507 722.332 844.373 723.514 847.22 724.74L852.547 721.309C850.514 724.886 849.118 724.091 846.391 726.371C844.773 725.452 843.166 724.259 841.387 724.344C839.53 726.589 840.884 727.798 839.248 730.577L838.927 730.523C837.791 724.745 835.257 726.781 832.315 722.474L832.752 721.72C834.666 720.84 836.461 721.133 838.623 721.195Z"/><path fill="#062F39" fill-opacity="0.16862746" d="M813.639 708.599L818.833 711.368C820.048 713.849 820.481 713.624 820.022 715.84C819.192 716.326 818.899 716.596 817.907 716.074C812.786 713.382 811.323 714.366 805.943 714.277L801.476 711.931C806.514 711.235 812.51 714.805 813.639 708.599Z"/><path fill="#062F39" fill-opacity="0.52941179" d="M905.925 617.184C906.733 617.798 909.067 619.657 909.828 620.007C912.037 620.782 913.21 620.995 914.902 622.574L915.108 623.55C912.509 625.61 910.114 624.603 907.018 625.148C905.966 627.009 904.455 629.905 903.174 631.495L904.044 628.523C905.079 625.115 905.462 620.796 905.925 617.184Z"/><path fill="#062F39" fill-opacity="0.33725491" d="M911.312 744.709L911.856 745.766C914.992 746.414 915.389 743.441 918.462 743.302C919.745 743.846 919.637 743.866 920.39 745.069C917.556 748.458 915.55 750.756 912.418 753.843C911.754 751.657 910.638 751.109 909.959 748.306C910.314 746.432 910.226 746.359 911.312 744.709Z"/><path fill="#FEFEFE" fill-opacity="0.60000002" d="M848.73 786.298C849.865 785.565 851.138 785.451 852.487 785.184L852.878 786.166C856.339 787.363 857.128 787.606 860.712 787.719C856.886 788.38 847.663 790.489 844.533 790.455C843.922 788.812 842.71 788.346 841.174 787.372C838.608 787.296 836.043 787.178 833.481 787.019C838.19 786.327 843.556 786.974 848.73 786.298Z"/><path fill="#062F39" fill-opacity="0.062745102" d="M839.248 730.577C840.884 727.798 839.53 726.589 841.387 724.344C843.166 724.259 844.773 725.452 846.391 726.371C847.375 729.662 848.091 730.332 845.797 733.064C843.698 732.846 841.18 731.509 839.248 730.577Z"/><path fill="#FEFEFE" fill-opacity="0.80392158" d="M841.174 787.372C842.71 788.346 843.922 788.812 844.533 790.455C839.573 791.161 832.364 791.426 827.311 791.221C828.668 790.961 830.041 790.591 831.386 790.259L830.994 789.786C831.777 789.095 831.609 789.497 831.719 788.699C829.998 788.6 830.043 788.804 828.643 787.983L828.799 787.526C832.925 787.557 837.05 787.506 841.174 787.372Z"/><path fill="#042B37" fill-opacity="0.36078432" d="M823.846 784.713C828.585 784.396 835.123 780.596 838.11 784.124C837.988 785.119 838.06 784.978 837.724 785.907C839.172 786.218 838.739 786.214 840.194 786.14C843.636 785.929 845.282 786.03 848.73 786.298C843.556 786.974 838.19 786.327 833.481 787.019L830.294 786.999C828.06 786.279 826.367 785.416 823.846 784.713Z"/><path fill="#09303C" fill-opacity="0.11764706" d="M919.822 607.317C919.671 605.107 919.455 604.323 920.229 602.298C921.694 601.158 920.858 601.436 922.885 601.652C923.945 603.687 924.47 604.682 925.818 606.523C924.573 608.326 924.751 607.402 924.893 609.294C926.082 610.859 925.324 610.372 927.256 610.79L927.793 609.866L928.171 610.857C927.465 612.629 928.058 612.015 926.388 612.813C924.479 612.389 924.54 612.311 923.09 611.123C922.121 609.711 920.984 608.574 919.822 607.317Z"/><path fill="#062F39" fill-opacity="0.79215688" d="M909.828 620.007C910.631 620.071 913.487 620.276 913.98 620.692C916.729 623.016 921.479 624.956 923.419 627.738L923.237 628.507C918.389 629.577 914.734 625.391 909.395 625.846C909.098 625.812 907.417 625.269 907.018 625.148C910.114 624.603 912.509 625.61 915.108 623.55L914.902 622.574C913.21 620.995 912.037 620.782 909.828 620.007Z"/><path fill="#042B37" fill-opacity="0.035294119" d="M861.343 775.722L862.068 777.03C861.045 780.048 859.522 780.355 859.629 782.56C860.998 783.128 861.005 782.973 862.571 783.075L860.58 783.532C859.352 783.773 856.354 784.45 855.252 784.541C853.829 784.512 852.406 784.454 850.985 784.366C853.564 777.389 855.6 782.476 859.57 779.065C859.91 777.616 860.007 777.226 860.806 775.979L861.343 775.722Z"/><path fill="#062F39" fill-opacity="0.29411766" d="M928.171 610.857C929.386 613.047 931.144 616.013 932.209 618.187C931.212 619.876 931.869 619.223 930.141 620.197C929.283 620.166 928.798 620.194 927.958 620.029C927.34 617.407 924.658 613.682 923.09 611.123C924.54 612.311 924.479 612.389 926.388 612.813C928.058 612.015 927.465 612.629 928.171 610.857Z"/><path fill="#09303C" fill-opacity="0.32549021" d="M896.069 576.188C900.448 578.283 903.685 581.962 907.086 585.256C899.194 587.089 902.409 582.075 896.234 579.862L896.069 576.188Z"/><path fill="#09303C" fill-opacity="0.57254905" d="M935.379 639.924C934.234 637.498 934.099 638.153 934.438 635.926C937.834 633.106 939.501 637.926 939.949 640.62C939.884 642.425 939.902 642.316 939.203 643.984L938.562 644.182C937.026 643.228 936.318 641.543 935.379 639.924Z"/><path fill="#062F39" fill-opacity="0.26666668" d="M860.918 560.234C863.32 560.732 864.07 560.941 866.476 560.945C868.499 561.369 869.968 561.374 871.241 562.9L871.532 563.931C868.682 565.576 864.369 563.27 860.527 563.463L859.982 563.42L859.88 563.131C860.104 561.571 859.957 561.412 860.918 560.234Z"/><path fill="#062F39" fill-opacity="0.67450982" d="M810.425 576.195C808.693 575.405 806.065 574.7 806.431 572.494C808.059 571.681 809.252 572.079 811.096 572.328C813.371 573.508 812.984 572.897 814.088 574.816L813.933 575.956C812.445 576.76 812.182 576.803 810.425 576.195Z"/><path fill="#062F39" fill-opacity="0.17647059" d="M783.795 768.819C784.239 770.208 784.558 770.371 785.467 771.564L785.273 772.215C783.226 773.395 778.382 772.296 777.807 769.49L778.506 768.517C780.155 768.56 781.804 768.631 783.451 768.729L783.795 768.819Z"/><path fill="#09303C" fill-opacity="0.59607846" d="M728.417 684.91C732.379 685.197 734.316 686.795 736.689 683.203C736.242 686.22 735.093 688.204 735.604 690.332C735.195 690.159 728.45 686.161 728.246 685.911L728.417 684.91Z"/><path fill="#09303C" fill-opacity="0.36862746" d="M792.141 565.141C793.386 566.771 793.287 566.751 795.072 567.692C791.702 570.663 789.088 570.153 786.91 566.531C789.362 565.432 789.525 565.283 792.141 565.141Z"/><path fill="#09303C" fill-opacity="0.14509805" d="M760.495 639.237C761.664 644.843 762.399 643.519 767.691 645.086C765.856 645.104 754.438 646.004 754.453 646.008L753.939 642.479C755.969 643.646 757.298 644.505 759.579 643.583C760.653 642.224 760.445 641.021 760.495 639.237Z"/><path fill="#FEFEFE" fill-opacity="0.95294118" d="M855.252 784.541C856.354 784.45 859.352 783.773 860.58 783.532C859.609 785.235 859.739 784.381 859.872 786.109C861.053 787.15 861.045 787.029 862.625 787.324L860.712 787.719C857.128 787.606 856.339 787.363 852.878 786.166L852.487 785.184L855.252 784.541Z"/><path fill="#09303C" fill-opacity="0.23529412" d="M814.569 557.949C816.319 557.985 817.597 557.744 818.977 558.505C817.67 559.377 817.31 559.489 815.896 560.092L814.658 560.554C812.668 560.583 811.503 560.861 809.979 559.652L809.988 558.832C811.516 557.677 812.617 557.932 814.569 557.949Z"/><path fill="#062F39" fill-opacity="0.50980395" d="M840.394 557.64C843.619 557.479 847.921 556.676 850.2 558.614L850.084 559.974L845.618 560.13C843.374 559.25 842.454 558.867 840.394 557.64Z"/><path fill="#09303C" fill-opacity="0.55686277" d="M896.234 579.862C894.058 578.185 891.855 576.684 891.572 573.852L892.537 573.477C894.476 574.235 894.618 574.582 896.069 576.188L896.234 579.862Z"/><path fill="#09303C" fill-opacity="0.5529412" d="M800.516 561.268C802.127 561.384 802.844 561.129 803.858 561.952C802.678 564.512 799.477 564.915 797.336 563.195C797.838 562.236 797.528 562.565 798.117 562.085L799.101 561.738L800.516 561.268Z"/><path fill="#09303C" fill-opacity="0.5411765" d="M779.335 570.033L782.965 568.504C783.862 569.551 783.836 569.447 784.52 570.625L784.071 571.717C782.261 572.188 782.649 571.967 780.561 571.377L779.335 570.033Z"/><path fill="#062F39" fill-opacity="0.57647061" d="M814.695 557.554L820.954 557.476L822.832 558.155L823.025 558.704C821.537 559.64 817.829 559.855 815.896 560.092C817.31 559.489 817.67 559.377 818.977 558.505C817.597 557.744 816.319 557.985 814.569 557.949L814.695 557.554Z"/><path fill="#09303C" fill-opacity="0.090196081" d="M925.818 606.523C926.631 607.711 927.266 608.51 927.793 609.866L927.256 610.79C925.324 610.372 926.082 610.859 924.893 609.294C924.751 607.402 924.573 608.326 925.818 606.523Z"/></svg>